<svg width="323" height="739" viewBox="0 0 323 739" fill="none" xmlns="http://www.w3.org/2000/svg">
<path d="M0.324219 738.141H-2.67578V741.141H0.324219V738.141ZM0.324219 540.162V537.162H-2.67578L-2.67578 540.162H0.324219ZM39.1621 540.162H42.1621V537.162H39.1621V540.162ZM39.1621 699.303H36.1621V702.303H39.1621V699.303ZM116.838 699.303V702.303H119.838V699.303H116.838ZM116.838 563.465V560.465H113.838V563.465H116.838ZM155.676 563.465H158.676V560.465H155.676V563.465ZM155.676 699.303H152.676V702.303H155.676V699.303ZM272 699.303H275V696.303H272V699.303ZM272 738.141V741.141H275V738.141H272ZM3.32422 738.141L3.32422 540.162H-2.67578L-2.67578 738.141H3.32422ZM0.324219 543.162H39.1621V537.162H0.324219V543.162ZM36.1621 540.162L36.1621 699.303H42.1621L42.1621 540.162H36.1621ZM39.1621 702.303H116.838V696.303H39.1621V702.303ZM119.838 699.303L119.838 563.465H113.838L113.838 699.303H119.838ZM116.838 566.465H155.676V560.465H116.838V566.465ZM152.676 563.465L152.676 699.303H158.676L158.676 563.465H152.676ZM155.676 702.303L272 702.303V696.303L155.676 696.303V702.303ZM269 699.303V738.141H275V699.303H269ZM272 735.141L0.324219 735.141V741.141L272 741.141V735.141ZM0.324219 384.811L-0.755203 382.011L-2.67578 382.752L-2.67578 384.811H0.324219ZM272 280.043H275V275.671L270.921 277.244L272 280.043ZM272 318.881L273.078 321.681L275 320.941V318.881H272ZM209.48 342.941L208.403 340.142L206.48 340.881V342.941H209.48ZM209.48 465.518H206.48V467.578L208.403 468.317L209.48 465.518ZM272 489.578H275V487.518L273.078 486.778L272 489.578ZM272 528.416L270.921 531.215L275 532.788V528.416H272ZM0.324219 423.648H-2.67578L-2.67578 425.707L-0.755203 426.448L0.324219 423.648ZM170.643 450.74L169.554 453.536L173.643 455.127L173.643 450.74H170.643ZM170.643 357.908H173.643V353.534L169.562 355.11L170.643 357.908ZM50.9082 404.135L49.8277 401.336L42.6083 404.123L49.82 406.93L50.9082 404.135ZM1.40364 387.61L273.079 282.842L270.921 277.244L-0.755203 382.011L1.40364 387.61ZM269 280.043L269 318.881H275L275 280.043H269ZM270.922 316.081L208.403 340.142L210.558 345.741L273.078 321.681L270.922 316.081ZM206.48 342.941L206.48 465.518H212.48L212.48 342.941H206.48ZM208.403 468.317L270.922 492.378L273.078 486.778L210.558 462.718L208.403 468.317ZM269 489.578L269 528.416H275L275 489.578H269ZM273.079 525.617L1.40364 420.849L-0.755203 426.448L270.921 531.215L273.079 525.617ZM3.32422 423.648L3.32422 384.811H-2.67578L-2.67578 423.648H3.32422ZM173.643 450.74L173.643 357.908H167.643L167.643 450.74H173.643ZM169.562 355.11L49.8277 401.336L51.9887 406.933L171.723 360.707L169.562 355.11ZM49.82 406.93L169.554 453.536L171.731 447.945L51.9964 401.339L49.82 406.93ZM248.318 3.63086L249.509 0.877258L249.496 0.871582L249.483 0.865967L248.318 3.63086ZM260.633 11.9668L258.512 14.0881L260.633 11.9668ZM268.969 24.4707L266.204 25.6349L266.209 25.6482L266.215 25.6614L268.969 24.4707ZM272 97.5996H269V100.6H272V97.5996ZM322.395 97.5996H325.395V94.5996H322.395V97.5996ZM322.395 136.438V139.438H325.395V136.438H322.395ZM272 136.438V133.438H269V136.438H272ZM268.969 209.756L271.722 210.947L271.728 210.933L271.734 210.92L268.969 209.756ZM260.633 222.07L262.754 224.192L260.633 222.07ZM248.318 230.406L249.483 233.171L249.496 233.166L249.509 233.16L248.318 230.406ZM24.1953 230.406L25.386 227.653L25.3728 227.647L25.3595 227.641L24.1953 230.406ZM11.8809 222.07L14.0404 219.988L14.0215 219.968L14.0022 219.949L11.8809 222.07ZM3.54492 209.756L6.29849 208.565L6.29104 208.548L6.28338 208.531L3.54492 209.756ZM3.54492 24.4707L6.27095 25.7232L6.2911 25.6793L6.30983 25.6349L3.54492 24.4707ZM11.8809 11.9668L14.0022 14.0881L14.0215 14.0688L14.0404 14.0492L11.8809 11.9668ZM24.1953 3.63086L25.3595 6.39575L25.3728 6.39014L25.386 6.38446L24.1953 3.63086ZM201.713 97.5996V94.5996H198.713V97.5996H201.713ZM233.162 97.5996V100.6H236.162V97.5996H233.162ZM233.162 39.4375H236.162V36.4375H233.162V39.4375ZM39.1621 39.4375V36.4375H36.1621V39.4375H39.1621ZM39.1621 194.6H36.1621V197.6H39.1621V194.6ZM233.162 194.6V197.6H236.162V194.6H233.162ZM233.162 136.438H236.162V133.438H233.162V136.438ZM201.713 136.438H198.713V139.438H201.713V136.438ZM233.162 3.59961C238.075 3.59961 242.73 4.53302 247.154 6.39575L249.483 0.865967C244.308 -1.31299 238.859 -2.40039 233.162 -2.40039V3.59961ZM247.128 6.38446C251.46 8.25787 255.247 10.8241 258.512 14.0881L262.754 9.84546C258.945 6.03656 254.523 3.04553 249.509 0.877258L247.128 6.38446ZM258.512 14.0881C261.762 17.3389 264.327 21.178 266.204 25.6349L271.734 23.3065C269.569 18.1644 266.576 13.6677 262.754 9.84546L258.512 14.0881ZM266.215 25.6614C268.067 29.9429 269 34.5248 269 39.4375H275C275 33.7408 273.913 28.3448 271.722 23.28L266.215 25.6614ZM269 39.4375V97.5996H275V39.4375H269ZM272 100.6H322.395V94.5996H272V100.6ZM319.395 97.5996L319.395 136.438H325.395L325.395 97.5996H319.395ZM322.395 133.438H272V139.438H322.395V133.438ZM269 136.438V194.6H275V136.438H269ZM269 194.6C269 199.512 268.067 204.168 266.204 208.592L271.734 210.92C273.913 205.745 275 200.297 275 194.6H269ZM266.215 208.565C264.342 212.897 261.776 216.685 258.512 219.949L262.754 224.192C266.563 220.383 269.554 215.961 271.722 210.947L266.215 208.565ZM258.512 219.949C255.247 223.213 251.46 225.779 247.128 227.653L249.509 233.16C254.523 230.992 258.945 228.001 262.754 224.192L258.512 219.949ZM247.154 227.641C242.73 229.504 238.075 230.438 233.162 230.438V236.438C238.859 236.438 244.308 235.35 249.483 233.171L247.154 227.641ZM233.162 230.438L39.1621 230.438L39.1621 236.438L233.162 236.438V230.438ZM39.1621 230.438C34.2495 230.438 29.6675 229.504 25.386 227.653L23.0046 233.16C28.0694 235.35 33.4654 236.438 39.1621 236.438L39.1621 230.438ZM25.3595 227.641C20.9118 225.769 17.1517 223.214 14.0404 219.988L9.72133 224.153C13.4303 227.999 17.8799 231.002 23.0311 233.171L25.3595 227.641ZM14.0022 219.949C10.7382 216.685 8.17191 212.897 6.29849 208.565L0.791351 210.947C2.9596 215.961 5.95065 220.383 9.75954 224.192L14.0022 219.949ZM6.28338 208.531C4.31024 204.12 3.32422 199.486 3.32422 194.6H-2.67578C-2.67578 200.323 -1.51467 205.793 0.806467 210.981L6.28338 208.531ZM3.32422 194.6L3.32422 39.4375H-2.67578L-2.67578 194.6H3.32422ZM3.32422 39.4375C3.32422 34.5512 4.31008 29.991 6.27095 25.7232L0.818892 23.2182C-1.5145 28.2968 -2.67578 33.7144 -2.67578 39.4375H3.32422ZM6.30983 25.6349C8.18638 21.178 10.7514 17.3389 14.0022 14.0881L9.75954 9.84546C5.93737 13.6677 2.94513 18.1644 0.780016 23.3065L6.30983 25.6349ZM14.0404 14.0492C17.1517 10.8226 20.9118 8.26849 25.3595 6.39575L23.0311 0.865967C17.8799 3.03491 13.4303 6.03802 9.72133 9.8844L14.0404 14.0492ZM25.386 6.38446C29.6675 4.53296 34.2495 3.59961 39.1621 3.59961L39.1621 -2.40039C33.4654 -2.40039 28.0694 -1.31293 23.0046 0.877258L25.386 6.38446ZM39.1621 3.59961L233.162 3.59961V-2.40039L39.1621 -2.40039L39.1621 3.59961ZM201.713 100.6H233.162V94.5996H201.713V100.6ZM236.162 97.5996L236.162 39.4375H230.162L230.162 97.5996H236.162ZM233.162 36.4375L39.1621 36.4375V42.4375L233.162 42.4375V36.4375ZM36.1621 39.4375L36.1621 194.6H42.1621L42.1621 39.4375H36.1621ZM39.1621 197.6L233.162 197.6V191.6L39.1621 191.6V197.6ZM236.162 194.6L236.162 136.438H230.162L230.162 194.6H236.162ZM233.162 133.438H201.713V139.438H233.162V133.438ZM204.713 136.438V97.5996H198.713V136.438H204.713Z" fill="#8630F3"/>
</svg>
